<svg width="143" height="32" viewBox="0 0 143 32" fill="none" xmlns="http://www.w3.org/2000/svg">
<path d="M55.5092 6.5415L48.3948 15.3704L55.9664 25.5989H51.3089L44.3091 15.4846L51.2804 6.5415H55.5092ZM44.2519 25.5989H40.5947V6.5415H44.2519V25.5989Z" fill="#10213A"/>
<path d="M57.4731 12.0273H60.9873V25.599H57.4731V12.0273Z" fill="#10213A"/>
<path d="M89.9745 12.0271L84.8888 18.3129L90.4317 25.5988H85.7173L80.7745 18.3701L85.746 12.0271H89.9745ZM80.7173 25.5988H77.2031V6.42725H80.7173V25.5988Z" fill="#10213A"/>
<path d="M96.8845 15.3704C98.9987 15.3704 99.4847 15.3132 100.199 15.056C101.142 14.7131 101.713 13.7702 101.713 12.5701C101.713 11.4272 101.227 10.5415 100.427 10.1131C99.713 9.7702 98.9415 9.65596 97.056 9.65596H95.713V15.3704H96.8845ZM96.513 6.5415C99.3132 6.5415 100.627 6.68443 101.913 7.11303C104.113 7.82731 105.456 9.94164 105.456 12.5988C105.456 15.3132 103.999 17.4273 101.742 18.0846C100.656 18.3703 99.4273 18.4845 96.8558 18.4845H95.713V25.5989H92.0557V6.5415H96.513Z" fill="#10213A"/>
<path d="M61.4262 8.30926C61.4238 7.0962 60.4386 6.11496 59.2257 6.11724C58.0126 6.11986 57.0314 7.10507 57.0337 8.31814C57.0361 9.53103 58.0213 10.5123 59.2344 10.5098C60.4474 10.5074 61.4285 9.52215 61.4262 8.30926Z" fill="#10213A"/>
<path d="M113.113 14.8913C110.741 14.8963 109.504 16.8506 109.507 18.7788C109.511 20.6826 110.79 22.7064 113.151 22.7064C115.526 22.7014 116.799 20.6716 116.796 18.7641C116.792 16.8397 115.529 14.8913 113.122 14.8913H113.113ZM113.156 25.9703C109.205 25.9699 105.985 22.7583 105.978 18.8109C105.974 16.8972 106.717 15.0957 108.071 13.7384C109.425 12.381 111.226 11.6312 113.142 11.6274C117.102 11.6274 120.317 14.8367 120.325 18.7819C120.333 22.7375 117.124 25.9624 113.171 25.9703H113.156Z" fill="#10213A"/>
<path d="M127.322 11.6274C124.065 11.6274 121.893 13.3987 121.893 16.0274C121.893 16.9986 122.236 17.8844 122.836 18.4844C123.379 19.0274 124.15 19.399 125.636 19.8561C128.036 20.5702 128.036 20.5702 128.436 20.7416C129.179 21.056 129.408 21.3132 129.408 21.856C129.408 22.7416 128.607 23.3133 127.265 23.3133C125.579 23.3133 124.808 22.6558 124.693 21.056L121.448 21.9887C121.823 24.6057 123.84 25.9703 127.408 25.9703C130.894 25.9703 132.922 24.3417 132.922 21.5989C132.922 20.7131 132.665 19.9133 132.15 19.3133C131.608 18.5988 130.75 18.1702 128.693 17.5703C126.636 16.9703 126.351 16.8846 125.95 16.6274C125.579 16.4274 125.379 16.0559 125.379 15.656C125.379 14.8561 126.179 14.2561 127.265 14.2561C128.579 14.2561 129.265 14.8561 129.436 16.1416L132.694 15.2053C132.156 12.9271 130.255 11.6274 127.322 11.6274Z" fill="#10213A"/>
<path d="M140.64 22.7991C139.554 22.7991 139.24 22.3705 139.24 20.9132C139.24 20.6848 139.24 20.6848 139.268 19.999L139.354 14.7704H142.183V12.0273H139.411L139.451 8.73682L136.03 9.72004L135.982 12.0273H133.754V14.7704H135.868L135.668 20.056L135.639 21.399C135.639 22.8563 135.754 23.4847 136.182 24.1704C136.84 25.2846 138.011 25.8847 139.554 25.8847C140.64 25.8847 141.582 25.6847 142.668 25.2561V22.342C141.897 22.656 141.297 22.7991 140.64 22.7991Z" fill="#10213A"/>
<path d="M70.6574 25.9703C66.1342 25.9703 63.0896 23.0947 63.0811 18.8153C63.0768 16.7726 63.8222 14.9352 65.1795 13.6412C66.5374 12.3467 68.4702 11.6317 70.6224 11.6274C72.2231 11.6274 73.977 12.1483 75.0907 12.9541L73.2272 15.3317C72.5687 14.7728 71.6241 14.441 70.7211 14.441C69.6196 14.4432 68.6087 14.8903 67.8754 15.7004C67.1451 16.5058 66.7443 17.6094 66.7466 18.808C66.7517 21.3115 68.4495 23.1287 70.7831 23.1287C71.7296 23.1263 72.6661 22.8275 73.3515 22.308L75.1837 24.6713C74.0671 25.4734 72.3819 25.9668 70.6788 25.9703H70.6574Z" fill="#10213A"/>
<path d="M11.6303 1.10577L11.6144 14.2487L0.000341328 15.9959L0 4.88891C0 4.15772 0.460535 3.50577 1.14954 3.26124L10.1577 0.064484C10.8766 -0.190628 11.6312 0.34299 11.6303 1.10577Z" fill="#2FD371"/>
<path d="M18.3819 1.11371C17.7373 0.964463 17.0911 1.35652 16.9257 1.99721L16.0254 5.48443C16.0254 5.48443 14.9321 9.59525 14.0996 11.1381C13.0999 12.9913 12.2812 13.7974 11.6143 14.2487C11.6143 14.2487 18.6982 13.1969 20.1141 12.9701C23.6112 12.4102 25.7508 10.5255 27.2239 7.63615C27.4712 7.15154 28.0627 5.73185 28.4843 4.70389C28.7304 4.10436 28.38 3.4273 27.7485 3.28114L18.3819 1.11371Z" fill="#F7C34F"/>
<path d="M11.6303 30.894L11.6144 17.7511L0.000341328 16.0039L0 27.1109C0 27.842 0.460535 28.494 1.14954 28.7385L10.1577 31.9353C10.8766 32.1904 11.6312 31.6568 11.6303 30.894Z" fill="#2FD371"/>
<path d="M18.3819 30.8865C17.7373 31.0358 17.0911 30.6437 16.9257 30.003L16.0254 26.5158C16.0254 26.5158 14.9321 22.405 14.0996 20.8622C13.0999 19.0089 12.2812 18.2028 11.6143 17.7515C11.6143 17.7515 18.6982 18.8033 20.1141 19.0301C23.6112 19.59 25.7508 21.4747 27.2239 24.3641C27.4712 24.8487 28.0627 26.2684 28.4843 27.2963C28.7304 27.8959 28.38 28.5729 27.7485 28.7191L18.3819 30.8865Z" fill="#428BF4"/>
</svg>
